<?xml version="1.0" encoding="utf-8"?>
<!-- Generator: Adobe Illustrator 28.0.0, SVG Export Plug-In . SVG Version: 6.00 Build 0)  -->
<svg version="1.1" id="Capa_1" xmlns="http://www.w3.org/2000/svg" xmlns:xlink="http://www.w3.org/1999/xlink" x="0px" y="0px"
	 viewBox="0 0 792 612" style="enable-background:new 0 0 792 612;" xml:space="preserve">
<style type="text/css">
	.st0{fill:#A4C639;}
	.st1{fill:#2C3E50;}
	.st2{fill:none;stroke:#000000;stroke-miterlimit:10;}
	.st3{fill:#9B9A99;}
	.st4{fill:none;}
	.st5{fill:#9B9A98;}
</style>
<g>
	<path class="st0" d="M42.28,571.62c-4.28,0.61-8.57,0.61-12.85,0c-4.28-0.61-8.57-1.38-12.85-2.29c-0.82-0.21-1.61-0.49-2.37-0.84
		c-0.76-0.36-1.4-0.79-1.91-1.3c-1.12-1.02-1.79-2.5-1.99-4.44c-0.21-1.22-0.26-2.42-0.15-3.59c0.1-1.17,0.2-2.37,0.31-3.6
		c0.61-11.12,1.38-22.16,2.3-33.12c0.92-10.96,1.94-22,3.06-33.12c0.31-3.77,0.64-7.55,0.99-11.32c0.36-3.77,0.74-7.55,1.15-11.32
		c0.2-1.32,0.36-2.68,0.46-4.05c0.1-1.38,0.51-2.62,1.22-3.75c0.51-0.82,1.15-1.45,1.91-1.91s1.55-0.79,2.37-1
		c4.59-1.43,9.2-2.29,13.85-2.6c4.64-0.31,9.31-0.51,14-0.61c4.9,0,9.79,0.21,14.69,0.61c4.9,0.41,9.59,1.48,14.08,3.21
		c3.57,1.43,6.96,3.39,10.17,5.89c3.21,2.5,5.79,5.38,7.73,8.64c2.85,4.8,4.69,10.07,5.51,15.83c0.81,5.76,0.76,11.4-0.15,16.91
		c-0.61,3.57-1.79,7.01-3.52,10.33c-1.74,3.32-3.93,6.2-6.58,8.64c-2.14,1.94-4.51,3.52-7.11,4.74c-2.6,1.22-5.28,2.25-8.03,3.06
		c-4.08,1.12-8.24,1.74-12.47,1.84c-4.23,0.1-8.44-0.15-12.62-0.76c-0.1,1.12-0.26,3.16-0.46,6.12c-0.21,2.96-0.41,6.15-0.61,9.56
		c-0.21,3.42-0.38,6.63-0.54,9.64c-0.15,3.01-0.23,5.02-0.23,6.04c0,0.71,0.02,1.45,0.08,2.22c0.05,0.76-0.13,1.45-0.54,2.07
		c-0.21,0.61-0.59,1.15-1.15,1.61c-0.56,0.46-1.15,0.79-1.76,0.99c-0.92,0.51-1.89,0.87-2.91,1.07
		C44.31,571.21,43.29,571.42,42.28,571.62z M51.76,503.99c2.35,0.31,4.72,0.61,7.11,0.92c2.4,0.31,4.77,0.21,7.11-0.31
		c1.43-0.2,2.75-0.69,3.98-1.45c1.22-0.77,2.14-1.71,2.75-2.83c0.61-1.12,1.1-2.42,1.45-3.9c0.36-1.48,0.56-2.98,0.61-4.51
		c0.05-1.53-0.1-2.98-0.46-4.36c-0.36-1.38-0.94-2.52-1.76-3.44c-0.82-0.82-1.99-1.45-3.52-1.91c-1.53-0.46-3.19-0.79-4.97-1
		c-1.79-0.2-3.54-0.31-5.28-0.31c-1.74,0-3.11,0.05-4.13,0.15c-0.71,3.88-1.28,7.7-1.68,11.47
		C52.58,496.29,52.17,500.12,51.76,503.99z"/>
	<path class="st0" d="M185.18,561.83c-1.33,0.41-3.37,0.74-6.12,1c-2.75,0.25-5.84,0.41-9.26,0.46c-3.42,0.05-7.01,0.05-10.79,0
		c-3.77-0.05-7.4-0.13-10.86-0.23c-3.47-0.1-6.6-0.21-9.41-0.31c-2.81-0.1-4.92-0.21-6.35-0.31c-1.33,0-2.63,0.02-3.9,0.08
		c-1.28,0.05-2.58-0.03-3.9-0.23c-0.61-0.1-1.22-0.23-1.84-0.38c-0.61-0.15-1.12-0.49-1.53-1c-0.61-0.61-0.92-1.38-0.92-2.29
		c-0.21-1.94-0.46-5.28-0.77-10.02s-0.66-10.15-1.07-16.22c-0.41-6.07-0.84-12.47-1.3-19.2c-0.46-6.73-0.92-13.13-1.38-19.2
		c-0.46-6.07-0.89-11.45-1.3-16.14c-0.41-4.69-0.77-8.01-1.07-9.94c-0.21-1.12-0.33-2.4-0.38-3.83c-0.05-1.43,0.43-2.4,1.45-2.91
		c2.35-1.22,4.82-1.99,7.42-2.29s5.18-0.66,7.73-1.07c9.89-1.12,19.76-1.96,29.61-2.52c9.84-0.56,19.71-1.04,29.6-1.45
		c0.51,0,0.97,0.03,1.38,0.08c0.41,0.05,0.81,0.18,1.22,0.38c0.51,0.31,0.89,0.82,1.15,1.53c0.25,0.71,0.41,1.53,0.46,2.45
		c0.05,0.92,0.08,1.81,0.08,2.68c0,0.87,0,1.61,0,2.22c-0.1,2.96-0.23,5.84-0.38,8.64c-0.15,2.81-0.33,5.69-0.54,8.64
		c-0.1,1.12-0.43,2.22-0.99,3.29c-0.56,1.07-1.45,1.61-2.68,1.61c-5.81,0-11.6,0.13-17.37,0.38c-5.76,0.26-11.55,0.49-17.37,0.69
		c0,1.43,0.02,2.86,0.08,4.28c0.05,1.43,0.13,2.86,0.23,4.28c0.61,0,1.81-0.02,3.6-0.08c1.78-0.05,3.7-0.1,5.74-0.15
		c2.04-0.05,3.95-0.1,5.74-0.15c1.78-0.05,2.98-0.08,3.6-0.08c0.71,0,1.5-0.02,2.37-0.08c0.87-0.05,1.68-0.02,2.45,0.08
		c0.76,0.1,1.38,0.33,1.84,0.69c0.46,0.36,0.69,0.89,0.69,1.61c0,0.51,0,1.61,0,3.29c0,1.68-0.03,3.5-0.08,5.43
		c-0.05,1.94-0.1,3.75-0.15,5.43c-0.05,1.68-0.08,2.78-0.08,3.29c0,1.63-0.13,3.27-0.38,4.9c-0.26,1.63-1.2,2.45-2.83,2.45
		c-3.88,0-7.7-0.02-11.48-0.08c-3.77-0.05-7.55,0.08-11.32,0.38c-0.1,0.51-0.15,1.33-0.15,2.45c0,1.12,0.02,2.35,0.08,3.67
		c0.05,1.33,0.13,2.58,0.23,3.75c0.1,1.17,0.15,2.02,0.15,2.52c5.51-0.51,11.02-0.74,16.52-0.69c5.51,0.05,11.02,0.03,16.52-0.08
		c1.53,0,2.42,0.76,2.68,2.29c0.25,1.53,0.33,3.06,0.23,4.59c0,0.51-0.05,1.56-0.15,3.14c-0.1,1.58-0.21,3.29-0.31,5.13
		c-0.1,1.84-0.21,3.54-0.31,5.12c-0.1,1.58-0.15,2.63-0.15,3.14c-0.1,1.12-0.51,2.12-1.22,2.98
		C187.22,560.78,186.3,561.42,185.18,561.83z"/>
	<path class="st0" d="M260.1,566.99c-4.69,0.41-9.39,0.56-14.08,0.46c-4.69-0.1-9.39-0.26-14.08-0.46c-0.71,0-1.43-0.15-2.14-0.46
		c-0.71-0.31-1.28-0.71-1.68-1.22c-0.51-0.71-0.84-1.48-0.99-2.29c-0.15-0.82-0.28-1.63-0.38-2.45
		c-0.82-12.03-0.94-24.04-0.38-36.03c0.56-11.98,1.35-23.99,2.37-36.03c-3.06,0-6.1,0.08-9.1,0.23c-3.01,0.15-6.04,0.33-9.1,0.54
		c-0.92,0-1.89,0-2.91,0c-1.02,0-1.96-0.1-2.83-0.31c-0.87-0.2-1.58-0.51-2.14-0.92c-0.56-0.41-0.89-1.07-1-1.99
		c-1.12-11.63-1.57-17.72-0.45-29.25c0.1-0.82-0.01-3.59,0.2-4.3c0.2-0.71-0.16-1.48,0.36-1.99c0.89-0.25,2.88-0.04,3.97,0
		c1.18,0.05,2.53,0.11,3.66,0.11c1.32,0,3.67-0.11,6.97,0c3.17,0.1,7.1,0.11,11.29,0c4.03-0.11,8.74,0.11,13.34,0
		c4.52-0.11,9.45,0.06,13.64-0.13c4.28-0.19,6.56-0.21,9.73-0.19c3.3,0.02,6.18,0.03,7.58,0.06c0.91,0.02,2.14,0.09,4.36,0.06
		c2.09-0.03,3.89-0.06,6.19-0.06s4.48-0.1,6.57,0c2.09,0.1,3.83-0.22,4.67-0.21c0.79,0.02,0.88,0.09,1.59,0.06
		c0.83-0.04-0.27-0.01,0.03,0c0.09,0,0.4-0.11,0.6-0.03c0.24,0.09,0.24-0.3,0.27,0.54c0.05,2.04,0,2.88,0,5.64s0,5.61,0,8.57
		c0,2.96,0,5.81,0,8.57s0,5.18,0,7.27c0,2.09,0,3.54,0,4.36c0,0.82-0.21,1.66-0.61,2.52c-0.41,0.87-1.02,1.4-1.84,1.61
		c-0.92,0.31-2.63,0.49-5.13,0.54c-2.5,0.05-5.18,0.1-8.03,0.15c-2.86,0.05-5.56,0.08-8.11,0.08c-2.55,0-4.28,0.05-5.2,0.15
		c-0.51,8.67-0.74,17.24-0.69,25.7c0.05,8.47,0.28,17.04,0.69,25.7c0,0.61,0.1,1.91,0.31,3.9c0.2,1.99,0.43,4.11,0.69,6.35
		c0.25,2.25,0.46,4.34,0.61,6.27c0.15,1.94,0.23,3.21,0.23,3.82c0,1.02-0.28,1.84-0.84,2.45c-0.56,0.61-1.28,1.09-2.14,1.45
		c-0.87,0.36-1.84,0.61-2.91,0.76C262.16,566.76,261.11,566.88,260.1,566.99z"/>
	<path class="st0" d="M472.97,558.92c-6.02,3.26-12.52,5.63-19.51,7.11c-6.99,1.48-13.85,1.71-20.58,0.69
		c-4.8-0.71-9.49-1.76-14.08-3.14s-9.03-3.24-13.31-5.58c-2.65-1.53-5.2-3.26-7.65-5.2c-2.45-1.94-4.64-4.08-6.58-6.43
		c-1.94-2.55-3.6-5.28-4.97-8.19c-1.38-2.91-2.47-5.84-3.29-8.8c-2.04-7.34-2.75-14.84-2.14-22.49c0.61-7.65,2.4-14.99,5.36-22.03
		c2.85-6.73,6.88-12.9,12.09-18.51c5.2-5.61,11.12-9.89,17.75-12.85c6.22-2.75,12.9-4.26,20.04-4.51
		c7.14-0.25,13.92,0.59,20.35,2.52c3.16,1.02,6.17,2.42,9.03,4.21c2.85,1.79,5.41,3.9,7.65,6.35c1.73,1.84,3.26,3.85,4.59,6.04
		c1.32,2.19,2.29,4.46,2.91,6.81c0.82,3.27,1.22,6.58,1.22,9.94c0,3.37-0.1,6.68-0.31,9.95c0,1.22-0.05,2.47-0.15,3.75
		c-0.1,1.28-0.31,2.42-0.61,3.44c-0.31,1.02-0.76,1.86-1.38,2.52c-0.61,0.66-1.53,0.89-2.75,0.69c-2.04-0.41-4.13-0.79-6.27-1.15
		c-2.14-0.36-4.28-0.48-6.43-0.38c-2.25,0.1-4.46,0.31-6.66,0.61c-2.19,0.31-4.36,0.61-6.5,0.92c-0.82,0.1-1.68,0.21-2.6,0.31
		c-0.92,0.1-1.79,0-2.6-0.31c-0.82-0.31-1.53-1.02-2.14-2.14c-0.31-1.02-0.49-2.04-0.54-3.06c-0.05-1.02-0.13-2.09-0.23-3.21
		c-0.21-1.43-0.54-2.88-1-4.36c-0.46-1.48-1.1-2.83-1.91-4.05c-0.51-0.82-1.12-1.53-1.84-2.14c-0.71-0.61-1.53-1.07-2.45-1.38
		c-1.43-0.51-2.86-0.46-4.28,0.15c-1.12,0.41-2.14,0.99-3.06,1.76c-0.92,0.76-1.79,1.56-2.6,2.37c-1.84,2.14-3.34,4.69-4.51,7.65
		c-1.17,2.96-1.94,5.99-2.3,9.1c-0.36,3.11-0.25,6.2,0.31,9.26c0.56,3.06,1.66,5.71,3.29,7.96c0.71,1.12,1.58,2.07,2.6,2.83
		c1.02,0.76,2.09,1.45,3.21,2.07c4.69,2.25,9.54,3.06,14.54,2.45c4.49-0.51,8.85-1.55,13.08-3.14c4.23-1.58,8.29-3.44,12.16-5.58
		c0.51-0.31,1.15-0.69,1.91-1.15s1.53-0.89,2.29-1.3c0.76-0.41,1.5-0.69,2.22-0.84c0.71-0.15,1.32-0.08,1.84,0.23
		c1.12,0.82,1.84,1.94,2.14,3.37c0.82,2.96,1.71,5.94,2.68,8.95c0.97,3.01,1.91,6.04,2.83,9.1c0.2,0.82,0.46,1.74,0.77,2.75
		c0.31,1.02,0.48,2.02,0.54,2.98c0.05,0.97,0,1.91-0.15,2.83c-0.15,0.92-0.59,1.58-1.3,1.99c-0.31,0.51-0.94,1.17-1.91,1.99
		c-0.97,0.82-2.01,1.63-3.14,2.45c-1.12,0.82-2.22,1.58-3.29,2.29C474.27,558.11,473.48,558.62,472.97,558.92z"/>
	<path class="st0" d="M498.82,557.24c-0.82,0.41-1.53,0.41-2.14,0c-0.51-0.31-0.84-0.76-0.99-1.38c-0.15-0.61-0.28-1.22-0.38-1.84
		c-0.21-1.43-0.31-3.57-0.31-6.43c0-2.85,0.05-6.07,0.15-9.64c0.1-3.57,0.28-7.32,0.54-11.25c0.25-3.92,0.51-7.67,0.76-11.25
		c0.25-3.57,0.54-6.81,0.84-9.72c0.31-2.91,0.61-5.07,0.92-6.5c0.51-3.26,1.2-6.48,2.07-9.64c0.87-3.16,1.96-6.22,3.29-9.18
		c1.12-2.75,2.55-5.38,4.28-7.88c1.73-2.5,3.72-4.72,5.97-6.66c3.57-3.16,7.67-5.68,12.32-7.57c4.64-1.89,9.36-2.93,14.15-3.14
		c3.47-0.2,6.91,0.15,10.33,1.07c3.42,0.92,6.66,2.09,9.71,3.52c2.24,1.12,4.41,2.37,6.5,3.75c2.09,1.38,3.9,2.98,5.43,4.82
		c3.26,3.88,5.97,8.21,8.11,13c2.14,4.8,3.77,9.69,4.9,14.69c1.43,6.12,2.37,12.32,2.83,18.59c0.46,6.27,0.59,12.57,0.38,18.9
		c-0.1,3.06-0.21,6.15-0.31,9.26c-0.1,3.11-0.41,6.2-0.92,9.26c-0.1,0.61-0.21,1.2-0.31,1.76c-0.1,0.56-0.36,1.05-0.76,1.45
		c-0.51,0.51-1.1,0.84-1.76,1c-0.66,0.15-1.35,0.28-2.07,0.38c-0.82,0.1-1.66,0.13-2.52,0.08c-0.87-0.05-1.76-0.08-2.68-0.08
		c-0.61,0-1.94,0-3.98,0c-2.04,0-4.23,0.05-6.58,0.15c-2.35,0.1-4.54,0.15-6.58,0.15c-2.04,0-3.37,0-3.98,0
		c-1.22-0.1-2.07-0.54-2.52-1.3c-0.46-0.76-0.77-1.73-0.92-2.91c-0.15-1.17-0.21-2.42-0.15-3.75c0.05-1.32,0.08-2.6,0.08-3.83
		c-0.61,0-1.96-0.02-4.05-0.08c-2.09-0.05-4.31-0.1-6.66-0.15c-2.35-0.05-4.57-0.1-6.66-0.15c-2.09-0.05-3.44-0.08-4.05-0.08
		c0,1.43-0.05,2.83-0.15,4.21c-0.1,1.38-0.05,2.78,0.15,4.21c0.1,1.12-0.23,2.04-0.99,2.75c-0.77,0.71-1.71,1.02-2.83,0.92
		c-4.49-0.41-8.93-0.66-13.31-0.76c-4.39-0.1-8.77,0.21-13.16,0.92c-0.41,0.1-0.76,0.13-1.07,0.08
		C499.44,556.96,499.13,557.04,498.82,557.24z M533.25,502.92c-0.82,2.75-1.35,5.53-1.61,8.34c-0.25,2.81-0.43,5.64-0.54,8.49
		c3.57-0.1,7.17-0.2,10.79-0.31c3.62-0.1,7.22-0.1,10.79,0c0-2.14-0.03-4.26-0.08-6.35c-0.05-2.09-0.18-4.15-0.38-6.2
		c-0.21-2.14-0.54-4.28-1-6.43s-1.25-4.18-2.37-6.12c-0.51-0.92-1.2-1.78-2.07-2.6c-0.87-0.82-1.86-1.22-2.98-1.22
		c-1.33,0-2.55,0.41-3.67,1.22c-1.12,0.82-2.12,1.84-2.98,3.06c-0.87,1.22-1.63,2.58-2.29,4.05
		C534.19,500.35,533.66,501.7,533.25,502.92z"/>
	<path class="st0" d="M624.59,574.22c-1.22,0-2.78,0-4.67,0c-1.89,0-3.77-0.1-5.66-0.31c-1.89-0.21-3.67-0.56-5.35-1.07
		c-1.68-0.51-2.88-1.22-3.6-2.14c-1.12-1.43-1.71-3.06-1.76-4.9c-0.05-1.84-0.13-3.62-0.23-5.36c-0.61-10.61-1.1-21.16-1.45-31.67
		c-0.36-10.5-0.69-21.11-1-31.82c0-1.22-0.08-3.37-0.23-6.43c-0.15-3.06-0.26-6.32-0.31-9.79c-0.05-3.47-0.08-6.73-0.08-9.79
		c0-3.06,0.15-5.2,0.46-6.43c0.2-1.12,0.76-2.07,1.68-2.83c0.92-0.77,1.94-1.4,3.06-1.91c3.88-1.73,7.93-3.01,12.16-3.83
		c4.23-0.81,8.49-1.53,12.78-2.14c5.81-0.82,11.73-1.25,17.75-1.3c6.02-0.05,11.88,0.69,17.59,2.22c3.67,1.02,7.24,2.45,10.71,4.28
		c3.47,1.84,6.53,4.08,9.18,6.73c2.65,2.65,4.84,5.69,6.58,9.1c1.73,3.42,2.91,6.96,3.52,10.63c0.61,3.47,0.66,6.99,0.15,10.56
		c-0.51,3.57-1.53,6.89-3.06,9.95c-1.94,3.88-4.67,7.32-8.19,10.33c-3.52,3.01-7.32,5.28-11.4,6.81c1.63,2.65,3.47,5.2,5.51,7.65
		c2.04,2.45,4.13,4.82,6.27,7.11c2.14,2.29,4.28,4.59,6.43,6.88c2.14,2.3,4.23,4.67,6.27,7.12c0.2,0.21,0.36,0.33,0.46,0.38
		c0.1,0.05,0.2,0.18,0.31,0.38c0.2,0.71-0.1,1.61-0.92,2.68c-0.82,1.07-1.48,1.91-1.99,2.52c-2.86,3.26-6.15,5.97-9.87,8.11
		c-3.72,2.14-7.73,3.62-12.01,4.44c-1.12,0.2-2.27,0.33-3.44,0.38c-1.17,0.05-2.32-0.13-3.44-0.54c-0.82-0.31-1.56-0.74-2.22-1.3
		c-0.66-0.56-1.25-1.2-1.76-1.91c-0.51-0.71-1.3-1.86-2.37-3.44c-1.07-1.58-2.27-3.39-3.6-5.43c-1.33-2.04-2.7-4.21-4.13-6.5
		c-1.43-2.29-2.78-4.49-4.05-6.58c-1.28-2.09-2.4-3.95-3.37-5.58c-0.97-1.63-1.66-2.85-2.07-3.67c0.2,4.49,0.41,8.93,0.61,13.31
		c0.2,4.39,0.56,8.77,1.07,13.16c0.1,0.92,0.25,1.84,0.46,2.75c0.2,0.92,0.1,1.78-0.31,2.6c-0.61,1.43-1.71,2.57-3.29,3.44
		c-1.58,0.87-3.39,1.53-5.43,1.99c-2.04,0.46-4.13,0.76-6.27,0.92C627.96,574.15,626.12,574.22,624.59,574.22z M638.51,504.45
		c1.94,0,3.88,0.05,5.81,0.15c1.94,0.1,3.88-0.05,5.81-0.46c1.63-0.31,3.21-0.87,4.74-1.68c1.53-0.82,2.7-1.94,3.52-3.37
		c1.12-2.04,1.68-4.38,1.68-7.04c0-2.65-0.51-5.05-1.53-7.19c-0.71-1.53-1.84-2.62-3.37-3.29c-1.53-0.66-3.27-1.07-5.2-1.22
		c-1.94-0.15-3.93-0.1-5.97,0.15c-2.04,0.26-3.88,0.54-5.51,0.84C638.21,489.1,638.21,496.8,638.51,504.45z"/>
	<path class="st0" d="M779.27,561.83c-1.33,0.41-3.37,0.74-6.12,1c-2.75,0.25-5.84,0.41-9.26,0.46c-3.42,0.05-7.01,0.05-10.79,0
		c-3.77-0.05-7.4-0.13-10.86-0.23c-3.47-0.1-6.61-0.21-9.41-0.31c-2.81-0.1-4.92-0.21-6.35-0.31c-1.33,0-2.63,0.02-3.9,0.08
		c-1.28,0.05-2.58-0.03-3.9-0.23c-0.61-0.1-1.22-0.23-1.84-0.38c-0.61-0.15-1.12-0.49-1.53-1c-0.61-0.61-0.92-1.38-0.92-2.29
		c-0.21-1.94-0.46-5.28-0.76-10.02s-0.66-10.15-1.07-16.22c-0.41-6.07-0.84-12.47-1.3-19.2c-0.46-6.73-0.92-13.13-1.38-19.2
		c-0.46-6.07-0.89-11.45-1.3-16.14c-0.41-4.69-0.76-8.01-1.07-9.94c-0.21-1.12-0.33-2.4-0.38-3.83c-0.05-1.43,0.43-2.4,1.45-2.91
		c2.34-1.22,4.82-1.99,7.42-2.29c2.6-0.31,5.18-0.66,7.73-1.07c9.89-1.12,19.76-1.96,29.61-2.52c9.84-0.56,19.71-1.04,29.61-1.45
		c0.51,0,0.97,0.03,1.38,0.08c0.41,0.05,0.81,0.18,1.22,0.38c0.51,0.31,0.89,0.82,1.15,1.53c0.25,0.71,0.41,1.53,0.46,2.45
		c0.05,0.92,0.08,1.81,0.08,2.68c0,0.87,0,1.61,0,2.22c-0.1,2.96-0.23,5.84-0.38,8.64c-0.15,2.81-0.33,5.69-0.54,8.64
		c-0.1,1.12-0.43,2.22-0.99,3.29c-0.56,1.07-1.45,1.61-2.68,1.61c-5.81,0-11.6,0.13-17.37,0.38c-5.76,0.26-11.55,0.49-17.37,0.69
		c0,1.43,0.02,2.86,0.08,4.28c0.05,1.43,0.13,2.86,0.23,4.28c0.61,0,1.81-0.02,3.6-0.08c1.78-0.05,3.7-0.1,5.74-0.15
		c2.04-0.05,3.95-0.1,5.74-0.15c1.78-0.05,2.98-0.08,3.6-0.08c0.71,0,1.5-0.02,2.37-0.08c0.87-0.05,1.68-0.02,2.45,0.08
		c0.76,0.1,1.38,0.33,1.84,0.69c0.46,0.36,0.69,0.89,0.69,1.61c0,0.51,0,1.61,0,3.29c0,1.68-0.03,3.5-0.08,5.43
		c-0.05,1.94-0.1,3.75-0.15,5.43c-0.05,1.68-0.08,2.78-0.08,3.29c0,1.63-0.13,3.27-0.38,4.9c-0.26,1.63-1.2,2.45-2.83,2.45
		c-3.88,0-7.7-0.02-11.48-0.08c-3.77-0.05-7.55,0.08-11.32,0.38c-0.1,0.51-0.15,1.33-0.15,2.45c0,1.12,0.02,2.35,0.08,3.67
		c0.05,1.33,0.13,2.58,0.23,3.75c0.1,1.17,0.15,2.02,0.15,2.52c5.51-0.51,11.02-0.74,16.52-0.69c5.51,0.05,11.02,0.03,16.52-0.08
		c1.53,0,2.42,0.76,2.68,2.29c0.25,1.53,0.33,3.06,0.23,4.59c0,0.51-0.05,1.56-0.15,3.14c-0.1,1.58-0.21,3.29-0.31,5.13
		c-0.1,1.84-0.21,3.54-0.31,5.12c-0.1,1.58-0.15,2.63-0.15,3.14c-0.1,1.12-0.51,2.12-1.22,2.98
		C781.31,560.78,780.39,561.42,779.27,561.83z"/>
</g>
<g>
	<path class="st1" d="M563.02,236.8c0.34,76.34-47.57,149.94-118.1,179.66C316.84,471.46,173.69,375.71,173.1,236.8
		C172.19,95.56,315.66-2.44,446.15,54.2C517.12,84.75,564.26,159.95,563.02,236.8L563.02,236.8z M561.62,236.8
		c0.12-75.86-49.42-145.17-119.93-171.86c-94.17-36.93-203.03,7.29-242.68,100.83c-63.64,155.02,88.54,306.55,243.9,245.84
		C513.91,383.96,562.57,313.22,561.62,236.8L561.62,236.8z"/>
</g>
<g>
	<path class="st0" d="M566.02,236.8c0.34,76.34-47.57,149.94-118.1,179.66C319.84,471.46,176.69,375.71,176.1,236.8
		C175.19,95.56,318.67-2.44,449.15,54.2C520.12,84.75,567.26,159.95,566.02,236.8L566.02,236.8z M564.62,236.8
		c0.12-75.86-49.42-145.17-119.93-171.86c-94.17-36.93-203.03,7.29-242.68,100.83c-63.64,155.02,88.54,306.55,243.9,245.84
		C516.91,383.96,565.57,313.22,564.62,236.8L564.62,236.8z"/>
</g>
<path d="M412.44,301.92"/>
<path class="st2" d="M413.11,285.94"/>
<g>
	<path class="st1" d="M37.27,571.51c-4.28,0.61-8.57,0.61-12.85,0c-4.28-0.61-8.57-1.38-12.85-2.29c-0.82-0.21-1.61-0.49-2.37-0.84
		c-0.76-0.36-1.4-0.79-1.91-1.3c-1.12-1.02-1.79-2.5-1.99-4.44c-0.21-1.22-0.26-2.42-0.15-3.59c0.1-1.17,0.2-2.37,0.31-3.6
		c0.61-11.12,1.38-22.16,2.3-33.12c0.92-10.96,1.94-22,3.06-33.12c0.31-3.77,0.64-7.55,0.99-11.32c0.36-3.77,0.74-7.55,1.15-11.32
		c0.2-1.32,0.36-2.68,0.46-4.05c0.1-1.38,0.51-2.62,1.22-3.75c0.51-0.82,1.15-1.45,1.91-1.91s1.55-0.79,2.37-1
		c4.59-1.43,9.2-2.29,13.85-2.6c4.64-0.31,9.31-0.51,14-0.61c4.9,0,9.79,0.21,14.69,0.61c4.9,0.41,9.59,1.48,14.08,3.21
		c3.57,1.43,6.96,3.39,10.17,5.89c3.21,2.5,5.79,5.38,7.73,8.64c2.85,4.8,4.69,10.07,5.51,15.83c0.81,5.76,0.76,11.4-0.15,16.91
		c-0.61,3.57-1.79,7.01-3.52,10.33c-1.74,3.32-3.93,6.2-6.58,8.64c-2.14,1.94-4.51,3.52-7.11,4.74c-2.6,1.22-5.28,2.25-8.03,3.06
		c-4.08,1.12-8.24,1.74-12.47,1.84c-4.23,0.1-8.44-0.15-12.62-0.76c-0.1,1.12-0.26,3.16-0.46,6.12c-0.21,2.96-0.41,6.15-0.61,9.56
		c-0.21,3.42-0.38,6.63-0.54,9.64c-0.15,3.01-0.23,5.02-0.23,6.04c0,0.71,0.02,1.45,0.08,2.22c0.05,0.76-0.13,1.45-0.54,2.07
		c-0.21,0.61-0.59,1.15-1.15,1.61c-0.56,0.46-1.15,0.79-1.76,0.99c-0.92,0.51-1.89,0.87-2.91,1.07
		C39.31,571.11,38.29,571.31,37.27,571.51z M46.76,503.89c2.35,0.31,4.72,0.61,7.11,0.92c2.4,0.31,4.77,0.21,7.11-0.31
		c1.43-0.2,2.75-0.69,3.98-1.45c1.22-0.77,2.14-1.71,2.75-2.83c0.61-1.12,1.1-2.42,1.45-3.9c0.36-1.48,0.56-2.98,0.61-4.51
		c0.05-1.53-0.1-2.98-0.46-4.36c-0.36-1.38-0.94-2.52-1.76-3.44c-0.82-0.82-1.99-1.45-3.52-1.91c-1.53-0.46-3.19-0.79-4.97-1
		c-1.79-0.2-3.54-0.31-5.28-0.31c-1.74,0-3.11,0.05-4.13,0.15c-0.71,3.88-1.28,7.7-1.68,11.47
		C47.58,496.19,47.17,500.01,46.76,503.89z"/>
	<path class="st1" d="M180.18,561.72c-1.33,0.41-3.37,0.74-6.12,1c-2.75,0.25-5.84,0.41-9.26,0.46c-3.42,0.05-7.01,0.05-10.79,0
		c-3.77-0.05-7.4-0.13-10.86-0.23c-3.47-0.1-6.6-0.21-9.41-0.31c-2.81-0.1-4.92-0.21-6.35-0.31c-1.33,0-2.63,0.02-3.9,0.08
		c-1.28,0.05-2.58-0.03-3.9-0.23c-0.61-0.1-1.22-0.23-1.84-0.38c-0.61-0.15-1.12-0.49-1.53-1c-0.61-0.61-0.92-1.38-0.92-2.29
		c-0.21-1.94-0.46-5.28-0.77-10.02s-0.66-10.15-1.07-16.22c-0.41-6.07-0.84-12.47-1.3-19.2c-0.46-6.73-0.92-13.13-1.38-19.2
		c-0.46-6.07-0.89-11.45-1.3-16.14c-0.41-4.69-0.77-8.01-1.07-9.94c-0.21-1.12-0.33-2.4-0.38-3.83c-0.05-1.43,0.43-2.4,1.45-2.91
		c2.35-1.22,4.82-1.99,7.42-2.29s5.18-0.66,7.73-1.07c9.89-1.12,19.76-1.96,29.61-2.52c9.84-0.56,19.71-1.04,29.6-1.45
		c0.51,0,0.97,0.03,1.38,0.08c0.41,0.05,0.81,0.18,1.22,0.38c0.51,0.31,0.89,0.82,1.15,1.53c0.25,0.71,0.41,1.53,0.46,2.45
		c0.05,0.92,0.08,1.81,0.08,2.68c0,0.87,0,1.61,0,2.22c-0.1,2.96-0.23,5.84-0.38,8.64c-0.15,2.81-0.33,5.69-0.54,8.64
		c-0.1,1.12-0.43,2.22-0.99,3.29c-0.56,1.07-1.45,1.61-2.68,1.61c-5.81,0-11.6,0.13-17.37,0.38c-5.76,0.26-11.55,0.49-17.37,0.69
		c0,1.43,0.02,2.86,0.08,4.28c0.05,1.43,0.13,2.86,0.23,4.28c0.61,0,1.81-0.02,3.6-0.08c1.78-0.05,3.7-0.1,5.74-0.15
		c2.04-0.05,3.95-0.1,5.74-0.15c1.78-0.05,2.98-0.08,3.6-0.08c0.71,0,1.5-0.02,2.37-0.08c0.87-0.05,1.68-0.02,2.45,0.08
		c0.76,0.1,1.38,0.33,1.84,0.69c0.46,0.36,0.69,0.89,0.69,1.61c0,0.51,0,1.61,0,3.29c0,1.68-0.03,3.5-0.08,5.43
		c-0.05,1.94-0.1,3.75-0.15,5.43c-0.05,1.68-0.08,2.78-0.08,3.29c0,1.63-0.13,3.27-0.38,4.9c-0.26,1.63-1.2,2.45-2.83,2.45
		c-3.88,0-7.7-0.02-11.48-0.08c-3.77-0.05-7.55,0.08-11.32,0.38c-0.1,0.51-0.15,1.33-0.15,2.45c0,1.12,0.02,2.35,0.08,3.67
		c0.05,1.33,0.13,2.58,0.23,3.75c0.1,1.17,0.15,2.02,0.15,2.52c5.51-0.51,11.02-0.74,16.52-0.69c5.51,0.05,11.02,0.03,16.52-0.08
		c1.53,0,2.42,0.76,2.68,2.29c0.25,1.53,0.33,3.06,0.23,4.59c0,0.51-0.05,1.56-0.15,3.14c-0.1,1.58-0.21,3.29-0.31,5.13
		c-0.1,1.84-0.21,3.54-0.31,5.12c-0.1,1.58-0.15,2.63-0.15,3.14c-0.1,1.12-0.51,2.12-1.22,2.98
		C182.22,560.68,181.3,561.31,180.18,561.72z"/>
	<path class="st1" d="M255.09,566.88c-4.69,0.41-9.39,0.56-14.08,0.46c-4.69-0.1-9.39-0.26-14.08-0.46c-0.71,0-1.43-0.15-2.14-0.46
		c-0.71-0.31-1.28-0.71-1.68-1.22c-0.51-0.71-0.84-1.48-0.99-2.29c-0.15-0.82-0.28-1.63-0.38-2.45
		c-0.82-12.03-0.94-24.04-0.38-36.03c0.56-11.98,1.35-23.99,2.37-36.03c-3.06,0-6.1,0.08-9.1,0.23c-3.01,0.15-6.04,0.33-9.1,0.54
		c-0.92,0-1.89,0-2.91,0c-1.02,0-1.96-0.1-2.83-0.31c-0.87-0.2-1.58-0.51-2.14-0.92c-0.56-0.41-0.89-1.07-1-1.99
		c-1.12-11.63-1.57-17.72-0.45-29.25c0.1-0.82-0.01-3.59,0.2-4.3c0.2-0.71-0.16-1.48,0.36-1.99c0.89-0.25,2.88-0.04,3.97,0
		c1.18,0.05,2.53,0.11,3.66,0.11c1.32,0,3.67-0.11,6.97,0c3.17,0.1,7.1,0.11,11.29,0c4.03-0.11,8.74,0.11,13.34,0
		c4.52-0.11,9.45,0.06,13.64-0.13c4.28-0.19,6.56-0.21,9.73-0.19c3.3,0.02,6.18,0.03,7.58,0.06c0.91,0.02,2.14,0.09,4.36,0.06
		c2.09-0.03,3.89-0.06,6.19-0.06s4.48-0.1,6.57,0c2.09,0.1,3.83-0.22,4.67-0.21c0.79,0.02,0.88,0.09,1.59,0.06
		c0.83-0.04-0.27-0.01,0.03,0c0.09,0,0.4-0.11,0.6-0.03c0.24,0.09,0.24-0.3,0.27,0.54c0.05,2.04,0,2.88,0,5.64s0,5.61,0,8.57
		c0,2.96,0,5.81,0,8.57s0,5.18,0,7.27c0,2.09,0,3.54,0,4.36c0,0.82-0.21,1.66-0.61,2.52c-0.41,0.87-1.02,1.4-1.84,1.61
		c-0.92,0.31-2.63,0.49-5.13,0.54c-2.5,0.05-5.18,0.1-8.03,0.15c-2.86,0.05-5.56,0.08-8.11,0.08c-2.55,0-4.28,0.05-5.2,0.15
		c-0.51,8.67-0.74,17.24-0.69,25.7c0.05,8.47,0.28,17.04,0.69,25.7c0,0.61,0.1,1.91,0.31,3.9c0.2,1.99,0.43,4.11,0.69,6.35
		c0.25,2.25,0.46,4.34,0.61,6.27c0.15,1.94,0.23,3.21,0.23,3.82c0,1.02-0.28,1.84-0.84,2.45c-0.56,0.61-1.28,1.09-2.14,1.45
		c-0.87,0.36-1.84,0.61-2.91,0.76C257.16,566.65,256.11,566.78,255.09,566.88z"/>
	<path class="st1" d="M467.97,558.82c-6.02,3.26-12.52,5.63-19.51,7.11c-6.99,1.48-13.85,1.71-20.58,0.69
		c-4.8-0.71-9.49-1.76-14.08-3.14s-9.03-3.24-13.31-5.58c-2.65-1.53-5.2-3.26-7.65-5.2c-2.45-1.94-4.64-4.08-6.58-6.43
		c-1.94-2.55-3.6-5.28-4.97-8.19c-1.38-2.91-2.47-5.84-3.29-8.8c-2.04-7.34-2.75-14.84-2.14-22.49c0.61-7.65,2.4-14.99,5.36-22.03
		c2.85-6.73,6.88-12.9,12.09-18.51c5.2-5.61,11.12-9.89,17.75-12.85c6.22-2.75,12.9-4.26,20.04-4.51
		c7.14-0.25,13.92,0.59,20.35,2.52c3.16,1.02,6.17,2.42,9.03,4.21c2.85,1.79,5.41,3.9,7.65,6.35c1.73,1.84,3.26,3.85,4.59,6.04
		c1.32,2.19,2.29,4.46,2.91,6.81c0.82,3.27,1.22,6.58,1.22,9.94c0,3.37-0.1,6.68-0.31,9.95c0,1.22-0.05,2.47-0.15,3.75
		c-0.1,1.28-0.31,2.42-0.61,3.44c-0.31,1.02-0.76,1.86-1.38,2.52c-0.61,0.66-1.53,0.89-2.75,0.69c-2.04-0.41-4.13-0.79-6.27-1.15
		c-2.14-0.36-4.28-0.48-6.43-0.38c-2.25,0.1-4.46,0.31-6.66,0.61c-2.19,0.31-4.36,0.61-6.5,0.92c-0.82,0.1-1.68,0.21-2.6,0.31
		c-0.92,0.1-1.79,0-2.6-0.31c-0.82-0.31-1.53-1.02-2.14-2.14c-0.31-1.02-0.49-2.04-0.54-3.06c-0.05-1.02-0.13-2.09-0.23-3.21
		c-0.21-1.43-0.54-2.88-1-4.36c-0.46-1.48-1.1-2.83-1.91-4.05c-0.51-0.82-1.12-1.53-1.84-2.14c-0.71-0.61-1.53-1.07-2.45-1.38
		c-1.43-0.51-2.86-0.46-4.28,0.15c-1.12,0.41-2.14,0.99-3.06,1.76c-0.92,0.76-1.79,1.56-2.6,2.37c-1.84,2.14-3.34,4.69-4.51,7.65
		c-1.17,2.96-1.94,5.99-2.3,9.1c-0.36,3.11-0.25,6.2,0.31,9.26c0.56,3.06,1.66,5.71,3.29,7.96c0.71,1.12,1.58,2.07,2.6,2.83
		c1.02,0.76,2.09,1.45,3.21,2.07c4.69,2.25,9.54,3.06,14.54,2.45c4.49-0.51,8.85-1.55,13.08-3.14c4.23-1.58,8.29-3.44,12.16-5.58
		c0.51-0.31,1.15-0.69,1.91-1.15s1.53-0.89,2.29-1.3c0.76-0.41,1.5-0.69,2.22-0.84c0.71-0.15,1.32-0.08,1.84,0.23
		c1.12,0.82,1.84,1.94,2.14,3.37c0.82,2.96,1.71,5.94,2.68,8.95c0.97,3.01,1.91,6.04,2.83,9.1c0.2,0.82,0.46,1.74,0.77,2.75
		c0.31,1.02,0.48,2.02,0.54,2.98c0.05,0.97,0,1.91-0.15,2.83c-0.15,0.92-0.59,1.58-1.3,1.99c-0.31,0.51-0.94,1.17-1.91,1.99
		c-0.97,0.82-2.01,1.63-3.14,2.45c-1.12,0.82-2.22,1.58-3.29,2.29C469.27,558,468.48,558.51,467.97,558.82z"/>
	<path class="st1" d="M493.82,557.13c-0.82,0.41-1.53,0.41-2.14,0c-0.51-0.31-0.84-0.76-0.99-1.38c-0.15-0.61-0.28-1.22-0.38-1.84
		c-0.21-1.43-0.31-3.57-0.31-6.43c0-2.85,0.05-6.07,0.15-9.64c0.1-3.57,0.28-7.32,0.54-11.25c0.25-3.92,0.51-7.67,0.76-11.25
		c0.25-3.57,0.54-6.81,0.84-9.72c0.31-2.91,0.61-5.07,0.92-6.5c0.51-3.26,1.2-6.48,2.07-9.64c0.87-3.16,1.96-6.22,3.29-9.18
		c1.12-2.75,2.55-5.38,4.28-7.88c1.73-2.5,3.72-4.72,5.97-6.66c3.57-3.16,7.67-5.68,12.32-7.57c4.64-1.89,9.36-2.93,14.15-3.14
		c3.47-0.2,6.91,0.15,10.33,1.07c3.42,0.92,6.66,2.09,9.71,3.52c2.24,1.12,4.41,2.37,6.5,3.75c2.09,1.38,3.9,2.98,5.43,4.82
		c3.26,3.88,5.97,8.21,8.11,13c2.14,4.8,3.77,9.69,4.9,14.69c1.43,6.12,2.37,12.32,2.83,18.59c0.46,6.27,0.59,12.57,0.38,18.9
		c-0.1,3.06-0.21,6.15-0.31,9.26c-0.1,3.11-0.41,6.2-0.92,9.26c-0.1,0.61-0.21,1.2-0.31,1.76c-0.1,0.56-0.36,1.05-0.76,1.45
		c-0.51,0.51-1.1,0.84-1.76,1c-0.66,0.15-1.35,0.28-2.07,0.38c-0.82,0.1-1.66,0.13-2.52,0.08c-0.87-0.05-1.76-0.08-2.68-0.08
		c-0.61,0-1.94,0-3.98,0c-2.04,0-4.23,0.05-6.58,0.15c-2.35,0.1-4.54,0.15-6.58,0.15c-2.04,0-3.37,0-3.98,0
		c-1.22-0.1-2.07-0.54-2.52-1.3c-0.46-0.76-0.77-1.73-0.92-2.91c-0.15-1.17-0.21-2.42-0.15-3.75c0.05-1.32,0.08-2.6,0.08-3.83
		c-0.61,0-1.96-0.02-4.05-0.08c-2.09-0.05-4.31-0.1-6.66-0.15c-2.35-0.05-4.57-0.1-6.66-0.15c-2.09-0.05-3.44-0.08-4.05-0.08
		c0,1.43-0.05,2.83-0.15,4.21c-0.1,1.38-0.05,2.78,0.15,4.21c0.1,1.12-0.23,2.04-0.99,2.75c-0.77,0.71-1.71,1.02-2.83,0.92
		c-4.49-0.41-8.93-0.66-13.31-0.76c-4.39-0.1-8.77,0.21-13.16,0.92c-0.41,0.1-0.76,0.13-1.07,0.08
		C494.44,556.85,494.13,556.93,493.82,557.13z M528.25,502.82c-0.82,2.75-1.35,5.53-1.61,8.34c-0.25,2.81-0.43,5.64-0.54,8.49
		c3.57-0.1,7.17-0.2,10.79-0.31c3.62-0.1,7.22-0.1,10.79,0c0-2.14-0.03-4.26-0.08-6.35c-0.05-2.09-0.18-4.15-0.38-6.2
		c-0.21-2.14-0.54-4.28-1-6.43s-1.25-4.18-2.37-6.12c-0.51-0.92-1.2-1.78-2.07-2.6c-0.87-0.82-1.86-1.22-2.98-1.22
		c-1.33,0-2.55,0.41-3.67,1.22c-1.12,0.82-2.12,1.84-2.98,3.06c-0.87,1.22-1.63,2.58-2.29,4.05
		C529.19,500.24,528.66,501.59,528.25,502.82z"/>
	<path class="st1" d="M619.59,574.12c-1.22,0-2.78,0-4.67,0c-1.89,0-3.77-0.1-5.66-0.31c-1.89-0.21-3.67-0.56-5.35-1.07
		c-1.68-0.51-2.88-1.22-3.6-2.14c-1.12-1.43-1.71-3.06-1.76-4.9c-0.05-1.84-0.13-3.62-0.23-5.36c-0.61-10.61-1.1-21.16-1.45-31.67
		c-0.36-10.5-0.69-21.11-1-31.82c0-1.22-0.08-3.37-0.23-6.43c-0.15-3.06-0.26-6.32-0.31-9.79c-0.05-3.47-0.08-6.73-0.08-9.79
		c0-3.06,0.15-5.2,0.46-6.43c0.2-1.12,0.76-2.07,1.68-2.83c0.92-0.77,1.94-1.4,3.06-1.91c3.88-1.73,7.93-3.01,12.16-3.83
		c4.23-0.81,8.49-1.53,12.78-2.14c5.81-0.82,11.73-1.25,17.75-1.3c6.02-0.05,11.88,0.69,17.59,2.22c3.67,1.02,7.24,2.45,10.71,4.28
		c3.47,1.84,6.53,4.08,9.18,6.73c2.65,2.65,4.84,5.69,6.58,9.1c1.73,3.42,2.91,6.96,3.52,10.63c0.61,3.47,0.66,6.99,0.15,10.56
		c-0.51,3.57-1.53,6.89-3.06,9.95c-1.94,3.88-4.67,7.32-8.19,10.33c-3.52,3.01-7.32,5.28-11.4,6.81c1.63,2.65,3.47,5.2,5.51,7.65
		c2.04,2.45,4.13,4.82,6.27,7.11c2.14,2.29,4.28,4.59,6.43,6.88c2.14,2.3,4.23,4.67,6.27,7.12c0.2,0.21,0.36,0.33,0.46,0.38
		c0.1,0.05,0.2,0.18,0.31,0.38c0.2,0.71-0.1,1.61-0.92,2.68c-0.82,1.07-1.48,1.91-1.99,2.52c-2.86,3.26-6.15,5.97-9.87,8.11
		c-3.72,2.14-7.73,3.62-12.01,4.44c-1.12,0.2-2.27,0.33-3.44,0.38c-1.17,0.05-2.32-0.13-3.44-0.54c-0.82-0.31-1.56-0.74-2.22-1.3
		c-0.66-0.56-1.25-1.2-1.76-1.91c-0.51-0.71-1.3-1.86-2.37-3.44c-1.07-1.58-2.27-3.39-3.6-5.43c-1.33-2.04-2.7-4.21-4.13-6.5
		c-1.43-2.29-2.78-4.49-4.05-6.58c-1.28-2.09-2.4-3.95-3.37-5.58c-0.97-1.63-1.66-2.85-2.07-3.67c0.2,4.49,0.41,8.93,0.61,13.31
		c0.2,4.39,0.56,8.77,1.07,13.16c0.1,0.92,0.25,1.84,0.46,2.75c0.2,0.92,0.1,1.78-0.31,2.6c-0.61,1.43-1.71,2.57-3.29,3.44
		c-1.58,0.87-3.39,1.53-5.43,1.99c-2.04,0.46-4.13,0.76-6.27,0.92C622.95,574.04,621.12,574.12,619.59,574.12z M633.51,504.35
		c1.94,0,3.88,0.05,5.81,0.15c1.94,0.1,3.88-0.05,5.81-0.46c1.63-0.31,3.21-0.87,4.74-1.68c1.53-0.82,2.7-1.94,3.52-3.37
		c1.12-2.04,1.68-4.38,1.68-7.04c0-2.65-0.51-5.05-1.53-7.19c-0.71-1.53-1.84-2.62-3.37-3.29c-1.53-0.66-3.27-1.07-5.2-1.22
		c-1.94-0.15-3.93-0.1-5.97,0.15c-2.04,0.26-3.88,0.54-5.51,0.84C633.21,489,633.21,496.7,633.51,504.35z"/>
	<path class="st1" d="M774.27,561.72c-1.33,0.41-3.37,0.74-6.12,1c-2.75,0.25-5.84,0.41-9.26,0.46c-3.42,0.05-7.01,0.05-10.79,0
		c-3.77-0.05-7.4-0.13-10.86-0.23c-3.47-0.1-6.61-0.21-9.41-0.31c-2.81-0.1-4.92-0.21-6.35-0.31c-1.33,0-2.63,0.02-3.9,0.08
		c-1.28,0.05-2.58-0.03-3.9-0.23c-0.61-0.1-1.22-0.23-1.84-0.38c-0.61-0.15-1.12-0.49-1.53-1c-0.61-0.61-0.92-1.38-0.92-2.29
		c-0.21-1.94-0.46-5.28-0.76-10.02s-0.66-10.15-1.07-16.22c-0.41-6.07-0.84-12.47-1.3-19.2c-0.46-6.73-0.92-13.13-1.38-19.2
		c-0.46-6.07-0.89-11.45-1.3-16.14c-0.41-4.69-0.76-8.01-1.07-9.94c-0.21-1.12-0.33-2.4-0.38-3.83c-0.05-1.43,0.43-2.4,1.45-2.91
		c2.34-1.22,4.82-1.99,7.42-2.29c2.6-0.31,5.18-0.66,7.73-1.07c9.89-1.12,19.76-1.96,29.61-2.52c9.84-0.56,19.71-1.04,29.61-1.45
		c0.51,0,0.97,0.03,1.38,0.08c0.41,0.05,0.81,0.18,1.22,0.38c0.51,0.31,0.89,0.82,1.15,1.53c0.25,0.71,0.41,1.53,0.46,2.45
		c0.05,0.92,0.08,1.81,0.08,2.68c0,0.87,0,1.61,0,2.22c-0.1,2.96-0.23,5.84-0.38,8.64c-0.15,2.81-0.33,5.69-0.54,8.64
		c-0.1,1.12-0.43,2.22-0.99,3.29c-0.56,1.07-1.45,1.61-2.68,1.61c-5.81,0-11.6,0.13-17.37,0.38c-5.76,0.26-11.55,0.49-17.37,0.69
		c0,1.43,0.02,2.86,0.08,4.28c0.05,1.43,0.13,2.86,0.23,4.28c0.61,0,1.81-0.02,3.6-0.08c1.78-0.05,3.7-0.1,5.74-0.15
		c2.04-0.05,3.95-0.1,5.74-0.15c1.78-0.05,2.98-0.08,3.6-0.08c0.71,0,1.5-0.02,2.37-0.08c0.87-0.05,1.68-0.02,2.45,0.08
		c0.76,0.1,1.38,0.33,1.84,0.69c0.46,0.36,0.69,0.89,0.69,1.61c0,0.51,0,1.61,0,3.29c0,1.68-0.03,3.5-0.08,5.43
		c-0.05,1.94-0.1,3.75-0.15,5.43c-0.05,1.68-0.08,2.78-0.08,3.29c0,1.63-0.13,3.27-0.38,4.9c-0.26,1.63-1.2,2.45-2.83,2.45
		c-3.88,0-7.7-0.02-11.48-0.08c-3.77-0.05-7.55,0.08-11.32,0.38c-0.1,0.51-0.15,1.33-0.15,2.45c0,1.12,0.02,2.35,0.08,3.67
		c0.05,1.33,0.13,2.58,0.23,3.75c0.1,1.17,0.15,2.02,0.15,2.52c5.51-0.51,11.02-0.74,16.52-0.69c5.51,0.05,11.02,0.03,16.52-0.08
		c1.53,0,2.42,0.76,2.68,2.29c0.25,1.53,0.33,3.06,0.23,4.59c0,0.51-0.05,1.56-0.15,3.14c-0.1,1.58-0.21,3.29-0.31,5.13
		c-0.1,1.84-0.21,3.54-0.31,5.12c-0.1,1.58-0.15,2.63-0.15,3.14c-0.1,1.12-0.51,2.12-1.22,2.98
		C776.31,560.68,775.39,561.31,774.27,561.72z"/>
</g>
<g>
	<path class="st0" d="M388.05,356.77c-11.98-6.34-22.26-15.87-30.95-26.3c-3.67-4.34-7.28-8.36-10-13.62
		c-5.59-11.77-5.22-26.01,6.87-33.47c4.97-3.36,11.91-4.1,17.51-3.05c7.93,0.62,14.09,4.75,16.19,12.6c0.34,1.35,0.6,2.7,0.67,4.06
		c-1.03-2.51-2.36-4.83-4.06-6.72c-3.53-4.01-7.88-4.98-13.14-4.69c-2.69,0-5.05,0.13-7.24,0.71c-4.28,1.15-8.26,4.11-10.38,7.73
		c-2.87,4.57-2.27,10.85-0.52,16.19c1.01,3.57,2.77,6.27,4.97,9.47C367.16,332.74,376.56,345.29,388.05,356.77L388.05,356.77z"/>
</g>
<g>
	<path class="st0" d="M385.19,293.91c2.88-9.17,11.4-13.73,20.93-13.48c3.04-0.13,6.38-0.03,9.38,1.2
		c9.28,3.78,13.52,15.16,12.83,24.58c-0.41,7.9-5.72,14.35-10.1,20.41c-10.63,15.09-26.21,27.5-43.91,32.77
		c13.99-9.41,25.97-20.18,35.25-33.97c3.01-4.29,6.45-8.95,8.89-13.48c4.31-6.95,1.9-20.58-5.52-24.59c-2.12-1.14-4.49-1.42-7-1.69
		C397.45,284.23,390.2,286.72,385.19,293.91L385.19,293.91z"/>
</g>
<path d="M412.44,301.92"/>
<path class="st2" d="M413.11,285.94"/>
<g>
	<path class="st1" d="M384.17,356.44c-12.99-4.81-23.56-14.41-32.66-24.55c-3.94-4.44-7.63-8.42-10.43-14.13
		c-4.18-9.26-5.38-20.78,0.97-29.46c6.02-8.52,17.07-12.01,26.77-9.55c6.39,0.87,12.49,4.07,15.02,10.2
		c1.2,2.75,1.66,5.62,1.51,8.39c-2.36-4.29-5.88-8.34-10.5-9.36c-2.74-0.63-7.17-0.06-10.27,0.22c-4.68,0.52-9.39,3.65-11.51,7.46
		c-2.36,4.13-1.7,8.93-0.34,13.48c0.94,3.5,2.08,5.38,4.2,8.65c2.71,4.09,5.93,8.59,8.75,12.93
		C370.63,338.36,378.72,348.97,384.17,356.44L384.17,356.44z"/>
</g>
<g>
	<path class="st1" d="M387.19,293.91c2.1-10.22,11.2-15.17,21-15.45c3.23-0.31,6.95-0.27,10.27,1.01
		c13.78,5.28,18.76,25.46,11.7,37.64c-2.99,5.47-6.42,9.82-10.22,14.53c-7.2,9.21-16.64,17.14-27.18,22.19
		c-5.26,2.53-10.74,4.49-16.44,5.54l6.43-5.59c10.25-8.98,19.13-18.63,26.53-30.08c1.34-2,3.29-4.78,4.58-6.75
		c2-3.14,4.23-6.27,5.3-9.5c0.96-4.26,0.56-8.84-1.24-12.8c-0.88-2.1-2.04-3.96-3.94-5.17c-1.76-1.14-3.79-1.49-6.12-1.87
		C399.56,285.76,392.96,287.4,387.19,293.91L387.19,293.91z"/>
</g>
<g>
	<path class="st3" d="M539.54,259c-0.46,41.42-52.66,59.2-77.87,25.57c-10.99-14.77-11.01-36.38-0.02-51.16
		C486.85,199.73,539.09,217.58,539.54,259L539.54,259z M539.54,259c0.1-21.2-18.45-38.32-39.59-36.07
		c-18.48,1.73-32.77,18.12-32.59,36.07c-0.21,17.97,14.09,34.4,32.59,36.11C521.1,297.35,539.63,280.21,539.54,259L539.54,259z"/>
</g>
<g>
	<path class="st0" d="M544.54,259c-0.46,41.42-52.66,59.2-77.87,25.57c-10.99-14.77-11.01-36.38-0.02-51.16
		C491.85,199.73,544.09,217.58,544.54,259L544.54,259z M544.54,259c0.1-21.2-18.45-38.32-39.59-36.07
		c-18.48,1.73-32.77,18.11-32.59,36.07c-0.21,17.97,14.09,34.4,32.59,36.11C526.1,297.35,544.63,280.21,544.54,259L544.54,259z"/>
</g>
<g>
	<path class="st3" d="M415.74,152.25c-0.06,21.25,18.37,38.42,39.59,36.36c18.69-1.56,33.33-18.16,33.09-36.36
		c0.21-18.19-14.42-34.74-33.1-36.32C434.12,113.85,415.69,131,415.74,152.25L415.74,152.25z M415.74,152.25
		c0.44-41.25,52.53-58.9,77.51-25.33c10.82,14.66,10.8,36-0.02,50.65C468.25,211.09,416.18,193.49,415.74,152.25L415.74,152.25z"/>
</g>
<g>
	<path class="st3" d="M307.19,143.95c-0.06,21.25,18.37,38.42,39.59,36.36c18.69-1.56,33.33-18.16,33.09-36.36
		c0.21-18.19-14.42-34.74-33.09-36.32C325.57,105.55,307.13,122.7,307.19,143.95L307.19,143.95z M307.19,143.95
		c0.44-41.25,52.53-58.9,77.51-25.33c10.82,14.66,10.8,36-0.02,50.65C359.7,202.79,307.63,185.19,307.19,143.95L307.19,143.95z"/>
</g>
<g>
	<path class="st3" d="M304.13,234.41c-0.45,41.24-52.5,58.84-77.49,25.32c-10.82-14.65-10.84-35.99-0.02-50.65
		C251.6,175.5,303.69,193.16,304.13,234.41L304.13,234.41z M304.13,234.41c0.06-21.25-18.38-38.4-39.59-36.32
		c-18.67,1.58-33.31,18.13-33.1,36.33c-0.23,18.2,14.4,34.79,33.1,36.36C285.76,272.83,304.19,255.66,304.13,234.41L304.13,234.41z"
		/>
</g>
<g>
	<path class="st1" d="M423.83,254.59c0.11-24.37-20.97-44.38-45.24-43.26c-19.88,0.67-38.04,16.63-40.21,36.56
		c-0.8,5.36,0.35,20.2,0.41,25.86c0.02,0.92,0.19,4.7,0.21,5.49c0,0,0.02,0.55,0.02,0.55c0.46-0.72-3.9,6.84-2.11,3.67
		c-4.76,2.97-12.36,7.75-17.15,10.69c-7.18,4.12-13.32,8.76-17.53,15.82c-12.54,20.72-3.66,47.86,18.96,56.7
		c8.14,3.28,17.41,3.57,25.75,0.89c4.01-1.22,7.52-3.45,11.34-5.21c13.56-6.21,29.93-5.62,43.01,1.53c0,0,2.12,1.21,2.12,1.21
		c0.37,0.21,0.65,0.39,0.97,0.59c4.75,2.92,10.09,4.88,15.63,5.62c19.07,2.89,38.97-9.75,44.68-28.17
		c3.43-10.79,2.65-23.03-2.67-33.09c-3.31-6.37-8.31-11.96-14.38-15.87c0,0-3.71-2.37-3.71-2.37
		C431.55,283.78,423.68,269.31,423.83,254.59L423.83,254.59z M423.83,254.59c-0.02,14.67,7.88,29.06,20.49,36.62
		c2.13,1.28,5.51,3.16,7.47,4.71c9.58,7.2,16.1,18.3,17.65,30.2c4.84,33.56-27.14,61.02-59.78,52.07
		c-3.52-0.94-6.93-2.35-10.16-4.06c-1.39-0.75-3.03-1.54-4.49-2.11c-5.37-2.18-11.25-3.06-17.01-2.7
		c-5.08,0.31-10.08,1.66-14.63,3.91c-4.05,2.14-8.02,4.67-12.43,6.13c-15.88,5.71-34.36,2.37-47.53-8.05
		c-20.57-15.74-25.23-46.18-10.56-67.44c3.7-5.46,8.57-10.07,14.11-13.61c2.92-1.78,5.39-3.01,7.99-4.43
		c4.99-2.64,12.85-6.91,17.83-9.51c1.89-3.2-2.43,4.29-2,3.47c0.03-1.35,0.19-4.7,0.23-6.04c0.17-3.23,0.62-19.15,0.92-22.18
		c0.51-4.66,1.62-9.26,3.48-13.55c7.04-17.03,24.77-28.7,43.15-28.47C402.75,209.42,424.26,230.24,423.83,254.59L423.83,254.59z"/>
</g>
<g>
	<path class="st0" d="M308.78,234.41c-0.45,41.24-52.5,58.84-77.49,25.32c-10.82-14.65-10.84-35.99-0.02-50.65
		C256.25,175.5,308.35,193.16,308.78,234.41L308.78,234.41z M308.78,234.41c0.06-21.25-18.38-38.4-39.59-36.33
		c-18.67,1.58-33.31,18.13-33.1,36.33c-0.23,18.2,14.4,34.79,33.1,36.36C290.41,272.83,308.84,255.66,308.78,234.41L308.78,234.41z"
		/>
</g>
<g>
	<path class="st0" d="M410.74,150.9c-0.06,21.25,18.37,38.42,39.59,36.36c18.69-1.56,33.33-18.16,33.09-36.36
		c0.21-18.19-14.42-34.74-33.09-36.32C429.12,112.5,410.68,129.65,410.74,150.9L410.74,150.9z M410.74,150.9
		c0.44-41.25,52.53-58.9,77.51-25.33c10.82,14.66,10.8,36-0.02,50.65C463.25,209.74,411.18,192.14,410.74,150.9L410.74,150.9z"/>
</g>
<g>
	<path d="M302.19,143.95c-0.06,21.25,18.37,38.42,39.59,36.36c18.69-1.56,33.33-18.16,33.09-36.36
		c0.21-18.19-14.42-34.74-33.1-36.32C320.57,105.55,302.13,122.7,302.19,143.95L302.19,143.95z M302.19,143.95
		c0.44-41.25,52.53-58.9,77.51-25.33c10.82,14.66,10.8,36-0.02,50.65C354.7,202.79,302.63,185.19,302.19,143.95L302.19,143.95z"/>
</g>
<g>
	<path d="M302.19,143.95c-0.06,21.25,18.37,38.42,39.59,36.36c18.69-1.56,33.33-18.16,33.09-36.36
		c0.21-18.19-14.42-34.74-33.1-36.32C320.57,105.55,302.13,122.7,302.19,143.95L302.19,143.95z M302.19,143.95
		c0.44-41.25,52.53-58.9,77.51-25.33c10.82,14.66,10.8,36-0.02,50.65C354.7,202.79,302.63,185.19,302.19,143.95L302.19,143.95z"/>
</g>
<g>
	<path class="st1" d="M539.54,259c-0.41,41.38-52.72,59.2-77.87,25.57c-10.99-14.77-11.01-36.38-0.02-51.16
		C486.85,199.73,539.09,217.58,539.54,259L539.54,259z M539.54,259c0.1-21.2-18.45-38.32-39.59-36.07
		c-18.48,1.73-32.77,18.12-32.59,36.07c-0.21,17.97,14.09,34.4,32.59,36.11C521.1,297.35,539.63,280.21,539.54,259L539.54,259z"/>
</g>
<path class="st4" d="M544.54,259L544.54,259c0,14.14-7.55,27.21-19.79,34.29l0,0c-12.25,7.07-27.34,7.07-39.59,0l0,0
	c-12.25-7.07-19.79-20.14-19.79-34.29v0c0-14.14,7.55-27.21,19.79-34.29l0,0c12.25-7.07,27.34-7.07,39.59,0l0,0
	C536.99,231.79,544.54,244.86,544.54,259z"/>
<g>
	<path class="st1" d="M415.74,152.25c-0.06,21.25,18.37,38.42,39.59,36.36c18.69-1.56,33.33-18.16,33.1-36.36
		c0.21-18.19-14.42-34.74-33.1-36.32C434.12,113.85,415.69,131,415.74,152.25L415.74,152.25z M415.74,152.25
		c0.44-41.25,52.53-58.9,77.51-25.33c10.82,14.66,10.8,36-0.02,50.65C468.25,211.09,416.18,193.49,415.74,152.25L415.74,152.25z"/>
</g>
<g>
	<path class="st0" d="M307.19,143.95c-0.06,21.25,18.37,38.42,39.59,36.36c18.69-1.56,33.33-18.16,33.09-36.36
		c0.21-18.19-14.42-34.74-33.1-36.32C325.57,105.55,307.13,122.7,307.19,143.95L307.19,143.95z M307.19,143.95
		c0.44-41.25,52.53-58.9,77.51-25.33c10.82,14.66,10.8,36-0.02,50.65C359.7,202.79,307.63,185.19,307.19,143.95L307.19,143.95z"/>
</g>
<g>
	<path class="st1" d="M304.13,234.41c-0.45,41.24-52.5,58.84-77.49,25.32c-10.82-14.65-10.84-35.99-0.02-50.65
		C251.6,175.5,303.69,193.16,304.13,234.41L304.13,234.41z M304.13,234.41c0.06-21.25-18.38-38.4-39.59-36.33
		c-18.67,1.58-33.31,18.13-33.1,36.33c-0.23,18.2,14.4,34.79,33.1,36.36C285.76,272.83,304.19,255.66,304.13,234.41L304.13,234.41z"
		/>
</g>
<g>
	<path class="st5" d="M426.83,251.59c0.11-24.37-20.97-44.38-45.24-43.26c-19.88,0.67-38.04,16.63-40.21,36.56
		c-0.8,5.36,0.35,20.2,0.41,25.86c0.02,0.92,0.19,4.7,0.21,5.49c0,0,0.02,0.55,0.02,0.55c0.46-0.72-3.9,6.84-2.11,3.67
		c-4.76,2.97-12.36,7.75-17.15,10.69c-7.18,4.12-13.32,8.76-17.53,15.82c-12.54,20.72-3.66,47.86,18.96,56.7
		c8.14,3.28,17.41,3.57,25.75,0.89c4.01-1.22,7.52-3.45,11.34-5.21c13.56-6.21,29.93-5.62,43.01,1.53c0,0,2.12,1.21,2.12,1.21
		c0.37,0.21,0.65,0.39,0.97,0.59c4.75,2.92,10.09,4.88,15.63,5.62c19.07,2.89,38.97-9.75,44.68-28.17
		c3.43-10.79,2.65-23.03-2.67-33.09c-3.31-6.37-8.31-11.96-14.38-15.87l-3.71-2.37C434.55,280.78,426.68,266.31,426.83,251.59
		L426.83,251.59z M426.83,251.59c-0.02,14.67,7.88,29.06,20.49,36.62c2.13,1.28,5.52,3.16,7.47,4.71c9.58,7.2,16.1,18.3,17.66,30.2
		c4.84,33.56-27.13,61.02-59.78,52.07c-3.52-0.94-6.93-2.35-10.16-4.06c-1.4-0.75-3.03-1.54-4.49-2.11
		c-5.37-2.18-11.25-3.06-17.01-2.7c-5.08,0.31-10.08,1.66-14.63,3.91c-4.05,2.14-8.03,4.67-12.43,6.13
		c-15.88,5.71-34.36,2.37-47.53-8.05c-20.57-15.74-25.23-46.18-10.56-67.44c3.7-5.46,8.57-10.07,14.11-13.61
		c2.92-1.78,5.39-3.01,7.99-4.43c4.99-2.64,12.85-6.91,17.83-9.51c1.89-3.2-2.43,4.29-2,3.47c0.03-1.35,0.19-4.7,0.23-6.04
		c0.17-3.23,0.62-19.15,0.92-22.18c0.51-4.66,1.62-9.26,3.48-13.55c7.04-17.03,24.77-28.7,43.15-28.47
		C405.75,206.42,427.26,227.24,426.83,251.59L426.83,251.59z"/>
</g>
<path class="st4" d="M308.78,234.41L308.78,234.41c0,14.14-7.55,27.21-19.79,34.29l0,0c-12.25,7.07-27.34,7.07-39.59,0l0,0
	c-12.25-7.07-19.79-20.14-19.79-34.29v0c0-14.14,7.55-27.21,19.79-34.29l0,0c12.25-7.07,27.34-7.07,39.59,0l0,0
	C301.24,207.19,308.78,220.26,308.78,234.41z"/>
<g>
	<path class="st0" d="M426.83,251.59c0.11-24.37-20.97-44.38-45.24-43.26c-19.88,0.67-38.04,16.63-40.21,36.56
		c-0.8,5.36,0.35,20.2,0.41,25.86c0.02,0.92,0.19,4.7,0.21,5.49c0,0,0.02,0.55,0.02,0.55c0.46-0.72-3.9,6.84-2.11,3.67
		c-4.76,2.97-12.36,7.75-17.15,10.69c-7.18,4.12-13.32,8.76-17.53,15.82c-12.54,20.72-3.66,47.86,18.96,56.7
		c8.14,3.28,17.41,3.57,25.75,0.89c4.01-1.22,7.52-3.45,11.34-5.21c13.56-6.21,29.93-5.62,43.01,1.53c0,0,2.12,1.21,2.12,1.21
		c0.37,0.21,0.65,0.39,0.97,0.59c4.75,2.92,10.09,4.88,15.63,5.62c19.07,2.89,38.97-9.75,44.68-28.17
		c3.43-10.79,2.65-23.03-2.67-33.09c-3.31-6.37-8.31-11.96-14.38-15.87c0,0-3.71-2.37-3.71-2.37
		C434.55,280.78,426.68,266.31,426.83,251.59L426.83,251.59z M426.83,251.59c-0.02,14.67,7.88,29.06,20.49,36.62
		c2.13,1.28,5.51,3.16,7.47,4.71c9.58,7.2,16.1,18.3,17.65,30.2c4.84,33.56-27.14,61.02-59.78,52.07
		c-3.52-0.95-6.93-2.35-10.16-4.06c-1.39-0.75-3.03-1.54-4.49-2.11c-5.37-2.18-11.25-3.06-17.01-2.7
		c-5.08,0.31-10.08,1.66-14.63,3.91c-4.05,2.14-8.02,4.67-12.43,6.13c-15.88,5.71-34.36,2.37-47.53-8.05
		c-20.57-15.74-25.23-46.18-10.56-67.44c3.7-5.46,8.57-10.07,14.11-13.61c2.92-1.78,5.39-3.01,7.99-4.43
		c4.99-2.64,12.85-6.91,17.83-9.51c1.89-3.2-2.43,4.29-2,3.47c0.03-1.35,0.19-4.7,0.23-6.04c0.17-3.23,0.62-19.15,0.92-22.18
		c0.51-4.66,1.62-9.26,3.48-13.55c7.04-17.03,24.77-28.7,43.15-28.47C405.75,206.42,427.26,227.24,426.83,251.59L426.83,251.59z"/>
</g>
<path class="st4" d="M410.74,150.9L410.74,150.9c0,14.14,7.55,27.22,19.8,34.29l0,0c12.25,7.07,27.34,7.07,39.59,0l0,0
	c12.25-7.07,19.8-20.14,19.8-34.29v0c0-14.14-7.55-27.22-19.8-34.29l0,0c-12.25-7.07-27.34-7.07-39.59,0l0,0
	C418.29,123.68,410.74,136.75,410.74,150.9z"/>
<g>
	<path class="st1" d="M302.19,143.95c-0.06,21.25,18.37,38.42,39.59,36.36c18.69-1.56,33.33-18.16,33.09-36.36
		c0.21-18.19-14.42-34.74-33.1-36.32C320.57,105.55,302.13,122.7,302.19,143.95L302.19,143.95z M302.19,143.95
		c0.44-41.25,52.53-58.9,77.51-25.33c10.82,14.66,10.8,36-0.02,50.65C354.7,202.79,302.63,185.19,302.19,143.95L302.19,143.95z"/>
</g>
<path class="st4" d="M302.19,143.95L302.19,143.95c0,14.14,7.55,27.22,19.8,34.29l0,0c12.25,7.07,27.34,7.07,39.59,0l0,0
	c12.25-7.07,19.8-20.14,19.8-34.29v0c0-14.14-7.55-27.22-19.8-34.29l0,0c-12.25-7.07-27.34-7.07-39.59,0l0,0
	C309.74,116.74,302.19,129.81,302.19,143.95z"/>
</svg>
